<svg
    version="1.1"
    id="Capa_1"
    xmlns="http://www.w3.org/2000/svg"
    xmlns:xlink="http://www.w3.org/1999/xlink"
    x="0px"
    y="0px"
    viewBox="0 0 190.9 43.8"
    style="enable-background: new 0 0 190.9 43.8"
    xml:space="preserve"
>
    <style type="text/css">
    .st0 {
        fill-rule: evenodd;
        clip-rule: evenodd;
        fill: #221d4c;
    }
    .st1 {
        fill-rule: evenodd;
        clip-rule: evenodd;
        fill: #ffffff;
    }
    </style>
    <g>
    <path
        class="st0"
        d="M88.6,22.4c0,1.7,0.6,3.2,1.7,4.4c1.2,1.2,2.6,1.8,4.2,1.8c1.7,0,3.1-0.6,4.3-1.8c1.2-1.2,1.8-2.7,1.8-4.4   c0-1.7-0.6-3.2-1.8-4.4c-1.2-1.2-2.6-1.8-4.3-1.8c-1.6,0-3,0.6-4.2,1.8C89.1,19.1,88.6,20.6,88.6,22.4L88.6,22.4z M77.9,22.4   c0-2.1,0.4-4.2,1.3-6.1c0.8-1.9,2.1-3.6,3.7-5.2c1.6-1.5,3.4-2.6,5.4-3.4c2-0.8,4.1-1.2,6.3-1.2c2.2,0,4.4,0.4,6.4,1.2   c2,0.8,3.8,1.9,5.4,3.4c1.6,1.5,2.8,3.2,3.6,5.2c0.8,1.9,1.2,4,1.2,6.1c0,2.2-0.4,4.2-1.2,6.1c-0.8,1.9-2,3.6-3.6,5.2   c-1.6,1.5-3.3,2.6-5.4,3.4c-2,0.8-4.2,1.2-6.4,1.2c-2.2,0-4.3-0.4-6.3-1.2c-2-0.8-3.8-1.9-5.4-3.4c-1.6-1.6-2.8-3.3-3.7-5.2   C78.3,26.6,77.9,24.6,77.9,22.4L77.9,22.4z"
    />
    <path
        class="st0"
        d="M111.9,43.8V24.3c0-2.3,0.1-4.1,0.3-5.3c0.2-1.2,0.6-2.4,1.1-3.4c1.3-2.7,3.4-4.9,6-6.5c2.7-1.6,5.7-2.4,9-2.4   c4.8,0,8.7,1.5,11.9,4.5c3.1,3,4.7,6.8,4.7,11.4c0,4.6-1.6,8.4-4.7,11.4c-3.1,3-7.1,4.5-11.9,4.5c-0.6,0-1.4,0-2.1-0.1   c-0.8-0.1-1.6-0.2-2.4-0.4v-10c1,0.3,1.8,0.5,2.5,0.6c0.6,0.1,1.2,0.2,1.6,0.2c2,0,3.5-0.6,4.7-1.7c1.1-1.1,1.7-2.6,1.7-4.5   c0-1.9-0.5-3.3-1.6-4.4c-1.1-1.1-2.6-1.7-4.4-1.7c-2,0-3.5,0.6-4.6,1.8c-1.1,1.2-1.6,2.9-1.6,5.1v20.5H111.9L111.9,43.8z"
    />
    <path
        class="st0"
        d="M168.6,37.8V23.1c0-2.2-0.5-4-1.6-5.1c-1.1-1.1-2.6-1.7-4.7-1.7c-1.7,0-3.1,0.6-4.2,1.7   c-1.1,1.1-1.6,2.6-1.6,4.4c0,1.9,0.6,3.4,1.7,4.5c1.1,1.1,2.7,1.7,4.6,1.7c0.5,0,1-0.1,1.7-0.2c0.6-0.1,1.5-0.3,2.5-0.6v10   c-0.8,0.2-1.6,0.3-2.4,0.4c-0.8,0.1-1.5,0.1-2.1,0.1c-4.8,0-8.8-1.5-11.9-4.5c-3.1-3-4.7-6.8-4.7-11.4c0-4.6,1.6-8.4,4.7-11.4   c3.1-3,7.1-4.5,11.9-4.5c3.3,0,6.3,0.8,9,2.4c2.7,1.6,4.7,3.7,6,6.5c0.5,1.1,0.9,2.2,1.1,3.5c0.2,1.3,0.3,3.3,0.3,6.1v12.8H168.6   L168.6,37.8z"
    />
    <path
        class="st0"
        d="M180.4,38V4.6c0-0.1,0-0.1,0-0.2c0-2.4,2.4-4.4,5.3-4.4c2.9,0,5.3,2,5.3,4.4c0,0.2,0,0.3,0,0.5V38H180.4   L180.4,38z"
    />
    <path
        class="st0"
        d="M54.4,21c0,0.2-0.1,0.5-0.1,0.7c0,0.1,0,0.2,0,0.3c0,1.7,0.6,3.2,1.7,4.4c1,1.1,2.3,1.7,3.7,1.8   c1.4,0.1,2.7-0.3,3.9-1.2c1.4-1,2.2-2.3,2.6-4l0,0c0-0.3,0.1-0.6,0.1-1h10.5c0,2.1-0.4,4.2-1.2,6.1c-0.8,1.9-2,3.6-3.6,5.2   c-1.6,1.5-3.3,2.6-5.4,3.4c-2,0.8-4.2,1.2-6.4,1.2c-0.2,0-0.3,0-0.5,0c0,0,0,0,0,0c-0.1,0-0.2,0-0.3,0c0,0-0.1,0-0.1,0c0,0,0,0,0,0   c-0.6,0-1.3-0.1-1.9-0.2c-2.2-0.4-4.2-1.1-6-2.2c-1.8-1.1-3.4-2.5-4.6-4.2c-1.3-1.8-2.2-3.7-2.6-5.7c-0.4-1.6-0.5-3.2-0.3-4.8   c0.1-1.6,0.5-3.2,1.2-4.7c0.8-1.9,2.1-3.6,3.7-5.2C50.2,9.3,52,8.1,54,7.3c2-0.8,4.1-1.2,6.3-1.2c0.7,0,1.3,0,1.9,0.1c0,0,0,0,0,0   c0.1,0,0.1,0,0.2,0c0,0,0,0,0,0c0,0,0,0,0,0c0,0,0.1,0,0.1,0c0,0,0,0,0,0c0,0,0.1,0,0.1,0c0,0,0,0,0.1,0c0,0,0,0,0,0c0,0,0,0,0,0   c0.2,0,0.3,0,0.5,0.1c2.2,0.4,4.2,1.1,6.1,2.2c1.8,1.1,3.3,2.4,4.5,4c0.6,0.9,0.8,2.1,0.6,3.2c-0.5,2.5-3,4.2-5.7,4l-1.2-0.2   c-0.8-0.2-1.5-0.6-2.1-1.1v0.3c0,0,0,0,0,0v-0.3c0,0,0,0-0.1-0.1c0,0,0-0.1-0.1-0.1c-0.1-0.2-0.2-0.3-0.4-0.5   c-0.1-0.1-0.2-0.1-0.3-0.2c0,0,0,0-0.1-0.1c-1-1.1-2.2-1.7-3.6-1.8c-1.4-0.1-2.7,0.3-4,1.2C55.6,18,54.7,19.3,54.4,21L54.4,21z"
    />
    <path
        class="st0"
        d="M4.8,5.7h23.2c2.6,0,4.8,2.2,4.8,4.9v22.8c0,2.7-2.2,4.9-4.8,4.9H4.8c-2.6,0-4.8-2.2-4.8-4.9V10.6   C0,7.9,2.2,5.7,4.8,5.7L4.8,5.7z"
    />
    <path
        class="st1"
        d="M12,7.6c3.2,0,6.4,0.1,9.7,0.1C22,8,22.5,8.1,22.8,8.5c0.2,0.3,0.7,0.6,0.7,1c0.2,9.2,0,18.1-0.1,27.1   c0,0.3-0.2,0.6-0.3,0.7c-0.1,0.1-0.3,0.2-0.4,0.2l-11.4,0.1c-0.4-0.2-0.8-0.3-1.1-0.5L9,36.3l-1.1-1.2L7.3,34   c-0.2-0.5-0.6-1-0.6-1.5c-0.1-1.1-0.2-2.3,0-3.4l0.3-1.3l0.6-1.3C7.7,26,8,25.7,8.2,25.3C8.4,24.8,8.7,24.4,9,24l1.1-1.5   c0.4-0.4,0.7-0.8,1.1-1.2l0.8-1l1-1.3l0.7-1.3l0.7-1.3l0.4-1.3l0.1-0.9c0.1-0.9,0.4-2,0.1-2.8c-0.1-0.2-0.1-0.5-0.2-0.7   c-0.1-0.2-0.3-0.4-0.4-0.7c-0.2-0.4-0.5-0.9-0.8-1.2L12,7.6L12,7.6z"
    />
    <path
        class="st0"
        d="M14.2,8.5l6.9,0.1c0.3,0.2,0.7,0.2,0.9,0.5c0.2,0.3,0.5,0.6,0.5,1c0,0.6,0,1.2,0,1.8c0,0.3,0,0.6,0,0.9   c0,0.3-0.1,0.6-0.1,0.9c0,0.1,0,0.2-0.1,0.3c-0.1,0.1-0.2,0.2-0.2,0.3c-0.2,0.2-0.3,0.4-0.5,0.5c-0.3,0.4-0.7,0.7-1,1.1   c-0.7,0.7-1.3,1.4-2,2.1c-1.3,1.4-2.7,2.8-4,4.2c-0.2,0.2-0.4,0.2-0.6,0.2l-0.7,0.1c-0.3,0-0.5,0-0.8-0.1c-0.2-0.1-0.4-0.2-0.5-0.4   c-0.1-0.3,0.1-0.5,0.2-0.8c0.9-1.6,2-3.1,2.8-4.5c0.2-0.3,0.3-0.7,0.4-1c0.1-0.3,0.2-0.8,0.3-1.2c0.1-0.5,0.2-0.8,0.2-1.4   c0-0.6,0.1-1.3-0.1-1.9c-0.1-0.3-0.1-0.5-0.2-0.8c-0.1-0.3-0.2-0.6-0.4-0.8l-0.5-0.7L14.2,8.5L14.2,8.5z"
    />
    <path
        class="st0"
        d="M22.5,15.9c-2.3,2.4-4.6,4.7-6.9,7c-0.1,0.1-0.2,0.3-0.3,0.4l-0.2,0.6c0,0.2-0.1,0.4,0,0.6   c0,0.1,0,0.2,0.1,0.3c0,0.1,0.2,0.4,0.3,0.5c0.2,0.1,0.2,0.2,0.5,0.4c0.3,0.2,0.6,0.4,0.9,0.6c0,3.3,0.1,6.6,0.1,9.8   c0.1,0.1,0.1,0.3,0.2,0.4c0.1,0.1,0.2,0.2,0.4,0.3l2.2,0l2.2,0c0.2-0.1,0.4-0.1,0.5-0.3l0.2-0.4V15.9L22.5,15.9z"
    />
    <path
        class="st1"
        d="M16.5,9.3c0.2,0,0.4,0.2,0.4,0.4c0,0.2-0.2,0.4-0.4,0.4c-0.2,0-0.4-0.2-0.4-0.4C16.1,9.5,16.2,9.3,16.5,9.3   L16.5,9.3z"
    />
    </g>
</svg>
